<?xml version="1.0" encoding="UTF-8" standalone="no"?>
<svg
   xmlns:dc="http://purl.org/dc/elements/1.1/"
   xmlns:cc="http://creativecommons.org/ns#"
   xmlns:rdf="http://www.w3.org/1999/02/22-rdf-syntax-ns#"
   xmlns:svg="http://www.w3.org/2000/svg"
   xmlns="http://www.w3.org/2000/svg"
   xmlns:sodipodi="http://sodipodi.sourceforge.net/DTD/sodipodi-0.dtd"
   xmlns:inkscape="http://www.inkscape.org/namespaces/inkscape"
   width="210mm"
   height="297mm"
   viewBox="0 0 210 297"
   version="1.1"
   id="svg895"
   inkscape:version="1.0.2-2 (e86c870879, 2021-01-15)"
   sodipodi:docname="logo.svg">
  <defs
     id="defs889" />
  <sodipodi:namedview
     id="base"
     pagecolor="#ffffff"
     bordercolor="#666666"
     borderopacity="1.0"
     inkscape:pageopacity="0.0"
     inkscape:pageshadow="2"
     inkscape:zoom="1.5686012"
     inkscape:cx="396.85039"
     inkscape:cy="583.76128"
     inkscape:document-units="mm"
     inkscape:current-layer="layer1"
     inkscape:document-rotation="0"
     showgrid="false"
     inkscape:snap-text-baseline="true"
     showguides="false"
     inkscape:snap-global="true"
     inkscape:window-width="1920"
     inkscape:window-height="1018"
     inkscape:window-x="-6"
     inkscape:window-y="-6"
     inkscape:window-maximized="1" />
  <metadata
     id="metadata892">
    <rdf:RDF>
      <cc:Work
         rdf:about="">
        <dc:format>image/svg+xml</dc:format>
        <dc:type
           rdf:resource="http://purl.org/dc/dcmitype/StillImage" />
        <dc:title></dc:title>
      </cc:Work>
    </rdf:RDF>
  </metadata>
  <g
     inkscape:label="Layer 1"
     inkscape:groupmode="layer"
     id="layer1">
    <circle
       style="fill:#ff9955;fill-opacity:1;stroke:#aa4400;stroke-width:6.508;stroke-miterlimit:4;stroke-dasharray:none;stroke-linejoin:round"
       id="path1536"
       cx="113.24852"
       cy="219.01479"
       r="53.136768" />
    <path
       style="fill:#ff0000;stroke:none;stroke-width:0.958625"
       d="m 402.35427,953.7978 c -45.8329,-5.78472 -84.93915,-35.00801 -105.5248,-78.85649 -8.37466,-17.83844 -11.8886,-31.89298 -12.64241,-50.56522 -0.42979,-10.646 -0.18533,-14.56656 1.37826,-22.10378 9.33587,-45.00339 48.82841,-63.45694 107.57774,-50.26752 5.53605,1.24287 12.68565,3.08331 15.88799,4.08987 l 5.82245,1.83011 7.5983,-2.27323 c 4.17907,-1.25027 12.99057,-3.4182 19.58112,-4.81762 10.43592,-2.21593 14.21031,-2.54419 29.23805,-2.54288 14.83464,0.001 18.33107,0.29824 24.92424,2.11679 25.07419,6.91606 40.51111,21.91617 48.03239,46.67323 2.35504,7.75189 2.62124,10.11741 2.69399,23.93985 0.0613,11.64104 -0.34871,17.29264 -1.70095,23.44749 -10.83174,49.30179 -46.25049,90.03839 -90.31715,103.87754 -16.19694,5.08666 -37.73689,7.32137 -52.54922,5.45186 z"
       id="path1504"
       transform="scale(0.26458333)" />
    <rect
       style="fill:#000000;stroke:none;stroke-width:0.322289"
       id="rect1464"
       width="61.988094"
       height="98.706497"
       x="5.8720689"
       y="72.783928"
       ry="0"
       transform="matrix(0.99272355,0.12041572,0.47990122,0.87732253,0,0)"
       inkscape:transform-center-x="21.960976"
       inkscape:transform-center-y="-82.620632" />
    <rect
       style="fill:#ffffff;stroke:none;stroke-width:0.264583"
       id="rect1472"
       width="103.1875"
       height="19.84375"
       x="23.434519"
       y="87.501495" />
    <text
       xml:space="preserve"
       style="font-style:normal;font-variant:normal;font-weight:bold;font-stretch:normal;font-size:10.5833px;line-height:1.25;font-family:'Trebuchet MS';-inkscape-font-specification:'Trebuchet MS Bold';letter-spacing:1.32292px;fill:#000000;fill-opacity:1;stroke:none;stroke-width:0.264583"
       x="-20.09273"
       y="101.86458"
       id="text1470"
       transform="skewX(41.608296)"><tspan
         sodipodi:role="line"
         id="tspan1468"
         x="-20.09273"
         y="101.86458"
         style="font-style:normal;font-variant:normal;font-weight:bold;font-stretch:normal;font-family:'Trebuchet MS';-inkscape-font-specification:'Trebuchet MS Bold';fill:#000000;stroke-width:0.264583">APPLE </tspan></text>
    <rect
       style="fill:#ffffff;stroke:none;stroke-width:0.264583"
       id="rect1484"
       width="100.79347"
       height="17.39674"
       x="63.130436"
       y="121.77718" />
    <text
       xml:space="preserve"
       style="font-style:normal;font-variant:normal;font-weight:bold;font-stretch:normal;font-size:10.5833px;line-height:1.25;font-family:'Trebuchet MS';-inkscape-font-specification:'Trebuchet MS, Bold';font-variant-ligatures:normal;font-variant-caps:normal;font-variant-numeric:normal;font-variant-east-asian:normal;letter-spacing:1.32292px;fill:#000000;fill-opacity:1;stroke:none;stroke-width:0.264583"
       x="-41.081078"
       y="133.43478"
       id="text1488"
       transform="skewX(43.875933)"><tspan
         id="tspan1486"
         x="-41.081078"
         y="133.43478"
         style="font-style:normal;font-variant:normal;font-weight:bold;font-stretch:normal;font-size:10.5833px;font-family:'Trebuchet MS';-inkscape-font-specification:'Trebuchet MS, Bold';font-variant-ligatures:normal;font-variant-caps:normal;font-variant-numeric:normal;font-variant-east-asian:normal;stroke-width:0.264583"
         sodipodi:role="line">COIN</tspan></text>
    <path
       style="fill:#552200;stroke:none;stroke-width:0.253636"
       d="m 109.33947,205.10725 -0.92206,-0.62656 0.67296,-1.97321 0.67295,-1.97322 -0.006,-8.42705 -0.006,-8.42705 1.27375,-0.57191 c 1.93986,-0.871 5.0936,-0.82408 6.98056,0.10384 0.76725,0.3773 1.74733,0.94798 2.17795,1.26818 l 0.78295,0.58219 -1.59914,4.13745 c -0.87953,2.27559 -2.67643,6.3845 -3.99312,9.1309 -1.31669,2.74639 -2.46781,5.24524 -2.55804,5.55299 -0.20083,0.6849 -1.54014,1.85 -2.12663,1.85 -0.23591,0 -0.84386,-0.28195 -1.35099,-0.62655 z"
       id="path1516" />
    <path
       style="fill:#ff4e2a;stroke:none;stroke-width:0.264583px;stroke-linecap:butt;stroke-linejoin:miter;stroke-opacity:1;fill-opacity:1"
       d="m 85.094921,221.29752 c -6.237291,3.6525 -12.883564,-7.79737 -2.409545,-16.8668 14.893928,-12.89663 7.699303,8.81163 2.409545,16.8668 z"
       id="path1524"
       sodipodi:nodetypes="csc" />
  </g>
</svg>
